<svg width="81" height="81" viewBox="0 0 81 81" fill="none" xmlns="http://www.w3.org/2000/svg">
<rect x="0.0117188" y="0.30127" width="80.606" height="80.606" rx="6" fill="#0196DA"/>
<path d="M16.9644 31.853C17.3528 31.4452 17.7413 31.0374 18.1411 30.642C18.9065 29.8635 19.8661 29.6658 20.86 29.5299C22.4365 29.4434 23.6931 30.3207 24.9955 31.0868C25.1668 31.1857 25.3496 31.2722 25.521 31.3587C26.2407 31.8283 26.949 32.3349 27.6915 32.755C28.3769 33.1381 29.3023 32.6067 29.8049 31.6306C30.9473 29.3816 32.0897 27.145 33.2093 24.8961C33.849 23.6233 34.4545 22.3258 35.0828 21.0407C35.4484 20.3981 35.7911 19.7432 36.1795 19.1254C37.0934 17.692 38.4643 17.1606 39.9951 17C42.5198 17.0989 44.0963 18.6188 45.0787 21.016C45.1359 21.1519 45.1244 21.3496 45.2844 21.4238C46.4496 23.7592 47.6149 26.107 48.7915 28.4425C49.1571 29.1715 49.3741 29.9871 49.9225 30.6049C50.1053 31.0621 50.2195 31.5811 50.4823 31.9889C51.1791 33.0392 52.1387 33.1134 53.521 32.2731C53.7609 32.1248 53.9551 31.9271 54.1722 31.7541C55.0975 31.4081 55.8629 30.7409 56.7312 30.2837C57.4509 29.9006 58.182 29.604 58.9931 29.5546C61.2208 29.6411 62.8315 30.815 63.7569 32.9775C64.3738 34.4356 64.3281 35.9678 63.9397 37.5371C62.8772 41.7756 61.8605 46.0263 60.9123 50.2894C60.5468 51.9329 60.1012 53.5517 59.7585 55.2075C59.2444 56.1837 58.7761 57.1846 57.8507 57.8148C56.8568 58.4821 55.8058 58.8775 54.6177 58.8157C52.5614 58.8157 50.4937 58.8157 48.4374 58.8157C45.7756 58.8157 43.1138 58.8157 40.4521 58.8157C38.5443 58.8157 36.6365 58.8157 34.7287 58.8157C32.9694 58.8157 31.2101 58.8157 29.4508 58.8157C27.9428 58.8157 26.4349 58.8157 24.9269 58.8157C23.7046 58.7292 22.665 58.1855 21.7739 57.2834C20.3345 55.8006 20.1289 53.7617 19.6719 51.8464C18.8494 48.3865 18.0269 44.9266 17.1929 41.4666C17.1929 41.4172 17.1244 41.3925 17.0901 41.3554C17.0215 40.1815 16.6103 39.1065 16.3133 37.9943C15.7649 35.869 15.9134 33.8424 16.9416 31.9148L16.9644 31.853ZM21.911 33.3111C21.2256 33.0516 20.5173 32.9404 19.9803 33.5829C19.3292 34.3491 18.9979 35.2511 19.3063 36.3385C19.5462 37.1788 19.7176 38.0561 19.9575 38.9088C20.5173 40.9476 20.7915 43.0607 21.4769 45.0625C22.0709 48.0158 22.8021 50.9196 23.5332 53.8235C23.6474 54.2931 23.9445 54.6144 24.31 54.8615C24.6185 55.1828 25.0183 55.294 25.4067 55.294C27.0518 55.294 28.6968 55.2693 30.3419 55.2569C31.7013 55.3311 33.0608 55.3434 34.4088 55.2569C35.5169 55.3311 36.6136 55.3434 37.7217 55.2569C38.727 55.3311 39.7323 55.3434 40.7377 55.2569C42.04 55.3434 43.3423 55.3434 44.6561 55.2569C46.3125 55.3434 47.969 55.3434 49.6255 55.2569C51.0877 55.3311 52.5386 55.3434 54.0008 55.2569C55.3831 55.5782 56.4913 54.6761 56.7197 53.7494C57.6679 49.7581 58.6047 45.7545 59.5986 41.7756C60.1812 39.4772 60.4896 37.0799 61.3464 34.8681C61.3693 34.8063 61.335 34.7074 61.3007 34.6456C60.6496 33.2246 59.0731 32.755 57.7822 33.5582C56.4913 34.3491 55.2689 35.2635 53.8523 35.7825C53.2811 36.1655 52.6071 36.3138 52.0017 36.3509C51.2819 36.4003 50.5051 36.215 49.7968 35.8813C48.9629 35.2882 48.1632 34.658 47.6834 33.6694C46.7352 31.7541 45.7756 29.8512 44.816 27.9358C43.7307 25.7487 42.6569 23.5615 41.5602 21.3743C41.4574 21.1643 41.3203 20.9542 41.0689 20.9171C40.2578 20.3487 39.2982 20.4599 38.7727 21.3002C38.3044 22.054 37.9388 22.8819 37.5275 23.6851C36.8192 25.0567 36.0538 26.3912 35.4369 27.8123C35.0143 28.7885 34.3745 29.6535 34.0889 30.7038C33.9975 30.8644 33.8947 31.0127 33.8147 31.1733C32.8894 32.9651 32.1583 34.9051 30.3304 35.9307C28.6283 36.4868 26.9718 36.4744 25.3953 35.4612C25.0412 35.2264 24.6756 35.004 24.31 34.7816C23.5446 34.2131 22.7449 33.7189 21.8996 33.3358L21.911 33.3111Z" fill="white"/>
</svg>
