<svg width="81" height="81" viewBox="0 0 81 81" fill="none" xmlns="http://www.w3.org/2000/svg">
<rect x="0.0898438" y="0.30127" width="80.606" height="80.606" rx="6" fill="#91D041"/>
<path d="M47.291 52.8792C47.291 51.4226 47.3033 49.966 47.28 48.5106C47.2763 48.239 47.1878 47.9329 47.0403 47.7055C45.4202 45.2127 45.4202 42.0401 47.0636 39.5989C48.7181 37.1405 51.7199 35.9162 54.606 36.5235C57.4799 37.1282 59.7207 39.3986 60.2714 42.3167C60.6377 44.2564 60.2394 46.0559 59.1737 47.719C59.0361 47.9341 58.9426 48.2205 58.9414 48.475C58.9254 51.3869 58.9242 54.3002 58.9365 57.2134C58.9389 57.8833 58.7435 58.4303 58.1277 58.7413C57.534 59.0412 56.9796 58.9023 56.4461 58.5311C55.4529 57.839 54.4376 57.1802 53.4481 56.4832C53.1887 56.3001 53.0179 56.3173 52.7684 56.493C51.8157 57.1617 50.8373 57.7935 49.8847 58.4622C49.3205 58.8593 48.739 59.0695 48.0863 58.7363C47.4263 58.3995 47.2775 57.7997 47.2861 57.1076C47.3033 55.6978 47.291 54.2866 47.291 52.8767V52.8792ZM48.7808 43.6307C48.7624 46.0018 50.6861 47.9612 53.0732 48.003C55.4111 48.0435 57.4319 46.0633 57.4541 43.7094C57.4762 41.2977 55.5451 39.3408 53.1297 39.3297C50.7291 39.3187 48.8005 41.2264 48.7808 43.6307ZM55.9667 50.395C54.043 51.1546 52.1574 51.1436 50.2768 50.4073V54.632C50.9196 54.1981 51.5011 53.8072 52.0812 53.4139C52.847 52.8952 53.3793 52.8939 54.1488 53.4139C54.7388 53.8122 55.3288 54.2104 55.9667 54.6419V50.3962V50.395Z" fill="white"/>
<path d="M51.291 27.4054C51.2848 33.088 46.6655 37.7024 40.9854 37.6975C35.2892 37.6938 30.6625 33.0474 30.6797 27.3513C30.6982 21.6785 35.3347 17.0715 41.0161 17.0825C46.6962 17.0936 51.2971 21.7166 51.291 27.4054ZM48.347 27.3968C48.3495 23.3232 45.054 20.0252 40.9854 20.0277C36.9413 20.0302 33.636 23.322 33.6249 27.3599C33.6138 31.4261 36.9118 34.7449 40.9706 34.7535C45.0393 34.7621 48.3446 31.4654 48.3458 27.3968H48.347Z" fill="white"/>
<path d="M23.3406 55.3698C23.5692 55.3698 23.7511 55.3698 23.9343 55.3698C29.1178 55.3698 34.3014 55.3698 39.4861 55.3698C39.6853 55.3698 39.8881 55.3624 40.0811 55.4018C40.8038 55.548 41.3066 56.2192 41.2562 56.9444C41.2058 57.6684 40.6133 58.256 39.877 58.3088C39.7553 58.3174 39.6312 58.3125 39.5095 58.3125C33.7273 58.3125 27.9452 58.3125 22.1642 58.3125C20.9191 58.3125 20.3684 57.768 20.3794 56.5166C20.3942 54.7712 20.3057 53.0245 20.6351 51.2889C21.6959 45.6984 26.5894 41.1725 32.267 40.7485C34.7844 40.5604 37.324 40.6575 39.8537 40.6526C40.6477 40.6514 41.2648 41.3409 41.2611 42.1239C41.2562 42.9254 40.6219 43.5781 39.791 43.583C37.705 43.5965 35.6191 43.5756 33.5331 43.5916C29.2125 43.6272 25.3884 46.361 23.9269 50.4223C23.3553 52.0104 23.2631 53.6477 23.3443 55.3686L23.3406 55.3698Z" fill="white"/>
</svg>
