<svg width="82" height="81" viewBox="0 0 82 81" fill="none" xmlns="http://www.w3.org/2000/svg">
<rect x="0.871094" y="0.30127" width="80.606" height="80.606" rx="6" fill="#FFE529"/>
<path d="M41.1412 53.7951C36.0736 53.7951 31.0059 53.8043 25.9396 53.7912C22.8873 53.7834 20.3548 51.8294 19.6351 48.9247C19.4954 48.3631 19.4457 47.7649 19.4444 47.1837C19.4314 40.2248 19.4314 33.266 19.4379 26.3084C19.4418 22.4594 22.2251 19.6957 26.0794 19.6944C36.165 19.6931 46.2506 19.6918 56.3376 19.6944C59.659 19.6944 62.2672 21.869 62.8367 25.1081C62.9033 25.4908 62.9111 25.8866 62.9124 26.2771C62.9164 33.2516 62.9216 40.2261 62.9124 47.202C62.9085 50.4567 60.8606 53.0141 57.7508 53.6541C57.2453 53.7585 56.7163 53.7873 56.1978 53.7886C51.1798 53.7977 46.1605 53.7938 41.1425 53.7938L41.1412 53.7951ZM41.1621 50.9713C46.1801 50.9713 51.1968 50.9727 56.2148 50.9713C58.5906 50.9713 60.1083 49.472 60.1096 47.1066C60.1148 40.1987 60.1148 33.2895 60.1096 26.3816C60.1083 24.0149 58.5919 22.5181 56.2148 22.5168C46.1958 22.5168 36.1767 22.5168 26.1577 22.5168C23.7454 22.5168 22.2394 24.0058 22.2381 26.4051C22.2342 33.2973 22.2355 40.1896 22.2421 47.0818C22.2421 47.4697 22.2708 47.8681 22.3635 48.2429C22.7776 49.9147 24.1921 50.9674 26.0114 50.97C31.0621 50.9753 36.1114 50.9713 41.1621 50.9713Z" fill="white"/>
<path d="M41.2253 58.6945C48.3605 58.6945 55.4957 58.6945 62.6308 58.6945C62.8268 58.6945 63.0227 58.6867 63.2173 58.705C63.8808 58.769 64.4006 59.2901 64.4659 59.9405C64.5351 60.6367 64.1407 61.2493 63.4746 61.4321C63.2434 61.4961 62.9926 61.5118 62.751 61.5118C48.367 61.5157 33.9817 61.5157 19.5978 61.5144C18.515 61.5144 17.8737 60.9789 17.8789 60.0855C17.8842 59.3646 18.417 58.7742 19.1354 58.705C19.3287 58.6867 19.5259 58.6945 19.7218 58.6945C26.8897 58.6945 34.0575 58.6945 41.2253 58.6945Z" fill="white"/>
<path d="M34.702 36.714C34.702 35.2172 34.5714 33.7061 34.7295 32.225C35.069 29.0316 38.7183 27.2945 41.414 29.042C43.4881 30.386 45.5113 31.8201 47.473 33.3247C49.7156 35.0448 49.662 38.536 47.3933 40.2365C45.4668 41.6811 43.4933 43.0668 41.4911 44.4056C40.0818 45.3473 38.5406 45.3904 37.0386 44.5989C35.4779 43.7773 34.6994 42.4242 34.6537 40.6728C34.6198 39.3549 34.6472 38.0345 34.6472 36.7153C34.6655 36.7153 34.6838 36.7153 34.702 36.7153V36.714ZM37.4657 36.697C37.4657 37.9522 37.4749 39.206 37.4618 40.4612C37.454 41.1913 37.6904 41.779 38.3617 42.1186C39.0082 42.4451 39.6129 42.3171 40.1928 41.9031C41.9417 40.6545 43.7049 39.4241 45.4551 38.1781C46.5862 37.3723 46.5849 36.1158 45.4525 35.31C43.701 34.0639 41.9404 32.8323 40.1902 31.5837C39.6103 31.1696 39.0069 31.043 38.3591 31.3708C37.7087 31.7012 37.4592 32.2707 37.4631 32.9812C37.471 34.2194 37.4657 35.4575 37.4644 36.6957L37.4657 36.697Z" fill="white"/>
</svg>
