<svg width="81" height="81" viewBox="0 0 81 81" fill="none" xmlns="http://www.w3.org/2000/svg">
<rect x="0.308594" y="0.30127" width="80.606" height="80.606" rx="6" fill="#F46F14"/>
<path d="M40.3337 29.463C38.2318 29.463 36.1312 29.463 34.0293 29.463C33.3541 29.463 32.8648 29.1472 32.5902 28.5369C32.3393 27.9802 32.4529 27.2887 32.9372 26.9193C33.238 26.6896 33.6574 26.4962 34.0256 26.4937C38.2281 26.465 42.4318 26.4712 46.6343 26.4774C47.508 26.4787 48.1658 27.1352 48.1658 27.9665C48.1658 28.7977 47.513 29.4555 46.6381 29.4593C44.5362 29.4692 42.4356 29.463 40.3337 29.463Z" fill="white"/>
<path d="M40.316 35.4431C38.2616 35.4431 36.2059 35.4443 34.1514 35.4431C33.1567 35.4431 32.4764 34.8365 32.4727 33.9566C32.4677 33.0704 33.1429 32.455 34.1327 32.455C38.2578 32.4538 42.3829 32.4538 46.5081 32.455C47.4916 32.455 48.1718 33.0791 48.1643 33.9615C48.1568 34.8253 47.4841 35.4406 46.528 35.4418C44.4574 35.4456 42.3867 35.4418 40.3173 35.4431H40.316Z" fill="white"/>
<path d="M55.1739 19C55.2275 19.0275 55.2787 19.0649 55.3349 19.0811C56.9487 19.5155 57.8798 20.7112 57.8811 22.3837C57.8848 27.707 57.8886 33.0316 57.8711 38.355C57.8698 38.7906 58.0059 38.9553 58.4053 39.1051C64.7771 41.4953 66.6805 49.8092 61.9937 54.7543C61.7266 55.0351 61.6105 55.3035 61.6118 55.6929C61.6268 58.8682 61.6218 62.0447 61.6193 65.22C61.6193 66.025 61.2024 66.6504 60.4797 66.7652C60.1128 66.8238 59.6597 66.7502 59.3314 66.5755C57.9722 65.8528 56.6392 65.0814 55.3136 64.3001C54.9991 64.1141 54.7757 64.1254 54.4699 64.3063C53.1843 65.064 51.8837 65.7991 50.5857 66.5343C49.3201 67.2507 48.1718 66.578 48.1693 65.1214C48.1668 63.4726 48.1693 61.825 48.1693 60.1101C47.9658 60.1101 47.7861 60.1101 47.6064 60.1101C41.2708 60.1101 34.9352 60.1101 28.5996 60.1101C26.3255 60.1101 25 58.7883 25 56.5229C25 45.3458 25 34.1687 25 22.9916C25 20.6351 25.5429 19.835 27.7097 19.0025C36.8661 19.0025 46.0212 19.0025 55.1776 19.0025L55.1739 19ZM48.1668 57.1183C48.1668 56.5928 48.1481 56.126 48.173 55.663C48.1917 55.3122 48.0832 55.0626 47.836 54.8017C42.9832 49.6706 45.0676 41.2332 51.7639 38.9703C52.7512 38.637 53.8109 38.5197 54.893 38.2913V37.9231C54.893 32.8319 54.893 27.742 54.893 22.6508C54.893 22.209 54.6659 21.9881 54.2115 21.9881C45.6955 21.9881 37.1806 21.9881 28.6645 21.9881C28.2127 21.9881 27.9864 22.2098 27.9856 22.6533C27.9856 33.9091 27.9856 45.1648 27.9856 56.4193C27.9856 56.8836 28.2177 57.1158 28.682 57.1158C34.9864 57.1158 41.292 57.1158 47.5964 57.1158C47.7649 57.1158 47.9346 57.1158 48.1655 57.1158L48.1668 57.1183ZM48.1668 48.1342C48.1618 51.8324 51.1686 54.8604 54.8568 54.8741C58.5763 54.8879 61.6155 51.8698 61.6193 48.1591C61.623 44.4596 58.6175 41.4329 54.928 41.4216C51.2035 41.4104 48.1705 44.4209 48.1655 48.1342H48.1668ZM58.6025 62.7412V57.1333C56.115 58.1081 53.6561 58.0993 51.1873 57.1358V62.7437C52.0959 62.2244 52.9759 61.7626 53.8121 61.2334C54.5598 60.7604 55.2425 60.7704 55.9864 61.2372C56.8251 61.7626 57.7013 62.2269 58.6025 62.7412Z" fill="white"/>
<path d="M37.7386 38.4338C38.9218 38.4338 40.1038 38.4313 41.287 38.4338C42.2469 38.4363 42.9196 39.0416 42.9321 39.9041C42.9446 40.7865 42.2643 41.4194 41.2845 41.4206C38.8881 41.4243 36.4904 41.4243 34.094 41.4206C33.1454 41.4194 32.4714 40.7878 32.4727 39.9241C32.4739 39.0554 33.1429 38.4375 34.0965 38.4338C35.3109 38.43 36.5241 38.4338 37.7386 38.4338Z" fill="white"/>
<path d="M53.7343 48.4024C54.4233 47.3714 55.0898 46.3616 55.7701 45.3619C55.9161 45.1472 56.0871 44.93 56.2943 44.779C56.8647 44.3621 57.6248 44.427 58.1403 44.8976C58.682 45.3931 58.8018 46.1582 58.3837 46.806C57.626 47.9805 56.8397 49.1375 56.0646 50.3008C55.8412 50.6365 55.624 50.9785 55.3881 51.3055C54.8876 52.0008 54.0988 52.1905 53.3799 51.7461C52.5736 51.2494 51.7822 50.7252 51.0121 50.176C50.3606 49.7104 50.2258 48.8392 50.6502 48.1814C51.0858 47.5074 51.9495 47.2928 52.6584 47.7034C53.0191 47.9118 53.3586 48.1565 53.7343 48.4024Z" fill="white"/>
</svg>
